<svg xmlns:xlink="http://www.w3.org/1999/xlink" xmlns="http://www.w3.org/2000/svg" version="1.1" viewBox="0 0 1100 1426.00227" height="1426.00227px" width="1100px">
    <title>猫猫吃爆米花</title>
    <g fill-rule="evenodd" fill="none" stroke-width="1" stroke="none" id="页面-1">
        <g fill-rule="nonzero" transform="translate(0.000000, 0.000000)" id="猫猫吃爆米花">
            <path fill="#678490" id="路径" d="M984.402793,359.091377 L920.430744,342.357185 C908.13265,329.971248 903.279296,315.235496 905.87068,298.14993 L920.298979,295.975803 C922.802519,295.624429 924.910764,296.371099 926.623713,298.215813 L943.48967,316.531188 L954.755602,338.140696 C955.18876,338.946446 956.008792,339.469919 956.922014,339.523638 C957.835235,339.577357 958.710985,339.153636 959.235622,338.404226 C984.666323,302.168772 1078.08791,137.198628 973.400391,137.659807 C911.60247,137.923337 847.498656,157.885779 791.168995,183.052949 C788.182315,184.414524 788.138393,185.885903 791.037229,187.467087 L833.136239,210.591895 C840.954313,216.257802 843.61158,224.031955 841.10804,233.914351 C823.649139,249.265008 788.665454,220.210761 770.547727,212.238961 C705.938813,187.115712 638.958123,172.467804 569.605659,168.295237 L558.076196,166.648171 C525.178795,161.948542 492.237473,161.39952 459.252229,165.001105 C440.321949,166.62621 421.655199,169.832499 403.25198,174.619971 C395.03861,176.772137 388.538189,172.928983 383.750717,163.090508 C383.882483,154.569686 388.516229,148.310834 397.651955,144.313954 L445.219225,135.156266 C446.320539,134.947251 447.202637,134.122002 447.484448,133.03703 C447.766259,131.952059 447.397266,130.801851 446.536878,130.083303 C404.24022,94.7043222 322.611623,33.1699317 270.959629,29.8757995 C188.276909,24.6710705 228.992384,192.54005 238.545367,233.650821 L208.239351,233.255525 C192.756929,175.34468 166.272106,46.478226 230.310037,8.72747039 C300.87035,-32.9103613 443.110981,85.6125172 494.433561,129.095063 C496.014745,130.456638 497.859459,131.159386 499.967703,131.203308 C581.706105,134.409596 662.03901,146.597886 740.966419,167.768176 C743.118585,168.339159 745.22683,168.163472 747.291153,167.241114 C812.383206,137.593924 904.88244,102.280826 976.892171,107.683203 C1120.77987,118.55384 1020.4406,300.38994 984.402793,359.091377 Z"></path>
            <path fill="#B0B9C6" id="路径" d="M397.651955,144.313954 C384.651113,121.782089 368.070648,102.544357 347.910558,86.6007569 C294.677381,44.435864 229.190032,73.2265799 271.354925,145.038663 C272.540812,147.059064 272.518851,149.079465 271.289042,151.099866 C258.815261,171.128191 255.587012,192.232598 261.604293,214.413088 C253.961906,218.805265 249.56973,225.217842 248.427764,233.650821 L238.545367,233.650821 C228.992384,192.54005 188.276909,24.6710705 270.959629,29.8757995 C322.611623,33.1699317 404.24022,94.7043222 446.536878,130.083303 C447.397266,130.801851 447.766259,131.952059 447.484448,133.03703 C447.202637,134.122002 446.320539,134.947251 445.219225,135.156266 L397.651955,144.313954 Z"></path>
            <path fill="#FFFFFF" id="路径" d="M397.651955,144.313954 C388.516229,148.310834 383.882483,154.569686 383.750717,163.090508 L301.13388,207.824824 C287.825586,189.772979 273.529052,206.375406 261.604293,214.413088 C255.587012,192.232598 258.815261,171.128191 271.289042,151.099866 C272.518851,149.079465 272.540812,147.059064 271.354925,145.038663 C229.190032,73.2265799 294.677381,44.435864 347.910558,86.6007569 C368.070648,102.544357 384.651113,121.782089 397.651955,144.313954 Z"></path>
            <path fill="#B0B9C6" id="路径" d="M943.48967,316.531188 C956.095216,298.215813 958.752483,278.341215 951.46147,256.907394 C950.758722,254.79915 951.154018,252.910514 952.647358,251.241487 C966.812126,235.429652 992.30871,206.968349 975.508636,183.31648 C942.040252,136.276271 863.442256,183.31648 833.136239,210.591895 L791.037229,187.467087 C788.138393,185.885903 788.182315,184.414524 791.168995,183.052949 C847.498656,157.885779 911.60247,137.923337 973.400391,137.658842 C1078.08791,137.198628 984.666323,302.168772 959.235622,338.404226 C958.710985,339.153636 957.835235,339.577357 956.922014,339.523638 C956.008792,339.469919 955.18876,338.946446 954.755602,338.140696 L943.48967,316.531188 Z"></path>
            <path fill="#91A1B5" id="路径" d="M558.076196,166.648171 C553.530294,171.391721 556.231482,175.34468 555.572656,179.890582 C550.565575,216.565255 535.939627,248.847751 511.694814,276.738071 L469.134625,268.239209 C460.52596,234.37553 457.231827,199.962828 459.252229,165.001105 C492.237473,161.39952 525.178795,161.948542 558.076196,166.648171 Z"></path>
            <path fill="#B0B9C6" id="路径" d="M383.750717,163.090508 C388.538189,172.928983 395.03861,176.772137 403.25198,174.619971 C421.655199,169.832499 440.321949,166.62621 459.252229,165.001105 C457.231827,199.962828 460.52596,234.37553 469.134625,268.239209 L279.722021,238.592019 C293.425611,232.926112 300.562897,222.67038 301.13388,207.824824 L383.750717,163.090508 Z"></path>
            <path fill="#FFFFFF" id="路径" d="M943.48967,316.531188 L926.623713,298.215813 C924.910764,296.371099 922.802519,295.624429 920.298979,295.975803 L905.87068,298.14993 L841.10804,233.914351 C843.61158,224.031955 840.954313,216.257802 833.136239,210.591895 C863.442256,183.31648 942.040252,136.276271 975.508636,183.31648 C992.30871,206.968349 966.812126,235.429652 952.647358,251.241487 C951.154018,252.910514 950.758722,254.79915 951.46147,256.907394 C958.752483,278.341215 956.095216,298.215813 943.48967,316.531188 Z"></path>
            <path fill="#B0B9C6" id="路径" d="M558.076196,166.648171 L569.605659,168.295237 C558.66914,209.340125 553.332646,280.559264 578.565699,317.717076 C585.088081,327.401825 597.803431,331.091253 606.961119,323.975927 C642.669512,296.436982 658.349582,231.674341 663.554311,188.784739 C663.77392,186.720417 664.915886,185.82002 666.980209,186.083551 L669.220218,186.412964 C671.548072,186.720417 672.602194,188.06003 672.382585,190.431806 C668.956688,228.050796 666.650795,270.083923 684.900288,304.474664 C656.614672,304.60643 635.751835,316.531188 622.311775,340.248941 C621.169809,342.269342 619.456861,343.103855 617.172929,342.752481 L565.059757,334.583033 C563.258964,334.319502 562.226803,333.287341 561.963272,331.486549 C557.615018,301.751515 540.858865,283.502022 511.694814,276.738071 C535.939627,248.847751 550.565575,216.565255 555.572656,179.890582 C556.231482,175.34468 553.530294,171.391721 558.076196,166.648171 Z"></path>
            <path fill="#91A1B5" id="路径" d="M569.605659,168.295237 C638.958123,172.467804 705.938813,187.115712 770.547727,212.238961 C761.851217,250.802269 744.128786,284.007122 717.380432,311.85352 L684.900288,304.474664 C666.650795,270.083923 668.956688,228.050796 672.382585,190.431806 C672.602194,188.06003 671.548072,186.720417 669.220218,186.412964 L666.980209,186.083551 C664.915886,185.82002 663.77392,186.720417 663.554311,188.784739 C658.349582,231.674341 642.669512,296.436982 606.961119,323.975927 C597.803431,331.091253 585.088081,327.401825 578.565699,317.717076 C553.332646,280.559264 558.66914,209.340125 569.605659,168.295237 Z"></path>
            <path fill="#678490" id="路径" d="M301.13388,207.824824 C300.562897,222.67038 293.425611,232.926112 279.722021,238.592019 L248.427764,233.650821 C249.56973,225.217842 253.961906,218.805265 261.604293,214.413088 C273.529052,206.375406 287.825586,189.772979 301.13388,207.824824 Z"></path>
            <path fill="#B0B9C6" id="路径" d="M770.547727,212.238961 C788.665454,220.210761 823.649139,249.265008 841.10804,233.914351 L905.87068,298.14993 C903.279296,315.235496 908.13265,329.971248 920.430744,342.357185 L717.380432,311.85352 C744.128786,284.007122 761.851217,250.802269 770.547727,212.238961 Z"></path>
            <path fill="#E3E3E3" id="形状" d="M208.239351,233.255525 L238.545367,233.650821 L248.427764,233.650821 L279.722021,238.592019 L469.134625,268.239209 L511.694814,276.738071 C540.858865,283.502022 557.615018,301.751515 561.963272,331.486549 C562.226803,333.287341 563.258964,334.319502 565.059757,334.583033 L617.172929,342.752481 C619.456861,343.103855 621.169809,342.269342 622.311775,340.248941 C635.751835,316.531188 656.614672,304.60643 684.900288,304.474664 L717.380432,311.85352 L920.430744,342.357185 L984.402793,359.091377 C984.446714,359.838047 984.512597,360.584717 984.600441,361.331387 C984.820049,362.868649 985.566719,364.098458 986.84045,365.020815 C1041.45716,405.99982 1007.13231,468.324803 994.285189,518.856791 C988.223986,534.668626 982.162783,550.4585 976.101579,566.226413 C968.327427,586.518268 956.995612,595.675956 943.48967,611.356025 C916.258177,626.42119 887.160008,631.91141 856.195165,627.826686 L761.982983,610.960729 C721.794569,606.480709 681.913608,598.838323 642.340099,588.033569 L617.107046,555.092246 C612.627026,457.454166 533.106674,439.336439 498.781816,535.063922 L468.607564,557.859317 C394.819002,552.325175 321.469657,542.420817 248.55953,528.146244 C217.858217,522.128963 192.098103,507.503016 171.279187,484.268403 C156.609318,459.584372 150.526154,432.836018 153.029694,404.023341 C153.117538,402.969219 152.634398,402.354314 151.580276,402.178627 C151.009293,402.090783 150.43831,402.00294 149.867327,401.915096 C152.985772,369.764366 155.203821,337.525791 156.521474,305.199373 C157.839127,271.269811 179.909813,248.474416 208.239351,233.255525 Z M184.785129,327.072411 C183.138063,375.10086 165.481514,478.800143 236.898301,492.635499 C264.700778,498.037876 332.801472,509.501456 441.200384,527.026239 C462.348713,530.452137 472.955819,516.419133 481.520563,497.247284 C516.306599,419.373997 631.074167,425.764614 643.328339,513.652062 C646.490706,535.986279 647.874241,560.16521 675.017891,565.106408 C706.202343,570.728394 760.687291,579.973925 838.472734,592.843002 C927.8096,607.600714 939.668477,583.355901 965.033295,505.943793 C977.221584,468.851864 1014.64293,394.53624 948.496751,380.371471 C912.041687,372.553397 821.43109,357.729802 676.664957,335.900686 C656.504868,332.870084 650.311899,355.533714 646.754236,369.764366 C646.139332,372.180062 644.645992,373.695363 642.274217,374.310268 C620.598826,379.84441 562.556216,363.90081 538.113755,359.947851 C534.987778,359.454203 532.199397,357.704315 530.395423,355.104104 C528.591449,352.503894 527.928649,349.27932 528.560771,346.178379 C533.128635,323.822201 524.476047,310.777437 502.603009,307.044087 C417.43871,292.505984 332.164606,278.516902 246.780698,265.076842 C199.147546,257.566221 186.30043,284.314575 184.785129,327.072411 Z"></path>
            <path fill="#FFFFFF" id="形状" d="M236.898301,492.635499 C165.481514,478.800143 183.138063,375.10086 184.785129,327.072411 C186.30043,284.314575 199.147546,257.566221 246.780698,265.076842 C332.164606,278.516902 417.43871,292.505984 502.603009,307.044087 C524.476047,310.777437 533.128635,323.822201 528.560771,346.178379 C527.928649,349.27932 528.591449,352.503894 530.395423,355.104104 C532.199397,357.704315 534.987778,359.454203 538.113755,359.947851 C562.556216,363.90081 620.598826,379.84441 642.274217,374.310268 C644.645992,373.695363 646.139332,372.180062 646.754236,369.764366 C650.311899,355.533714 656.504868,332.870084 676.664957,335.900686 C821.43109,357.729802 912.041687,372.553397 948.496751,380.371471 C1014.64293,394.53624 977.221584,468.851864 965.033295,505.943793 C939.668477,583.355901 927.8096,607.600714 838.472734,592.843002 C760.687291,579.973925 706.202343,570.728394 675.017891,565.106408 C647.874241,560.16521 646.490706,535.986279 643.328339,513.652062 C631.074167,425.764614 516.306599,419.373997 481.520563,497.247284 C472.955819,516.419133 462.348713,530.452137 441.200384,527.026239 C332.801472,509.501456 264.700778,498.037876 236.898301,492.635499 Z M232.418281,341.368945 C229.38768,363.703162 215.881738,452.183555 261.604293,459.496528 C311.104121,467.446367 360.560026,475.527972 409.97201,483.741342 C434.546237,487.760183 451.675724,483.21428 460.372234,459.364763 C471.374635,429.388159 509.257156,347.100736 454.31103,337.7454 C400.419026,328.565751 346.483101,319.605712 292.503254,310.865281 C263.910186,306.253496 236.898301,308.36174 232.418281,341.368945 Z M676.137896,421.284594 C674.161417,451.590611 659.864883,523.666224 704.730964,531.901555 C732.445597,536.99648 777.3556,544.441219 839.460973,554.235772 C866.209327,558.452261 891.969442,563.195812 903.433022,538.160406 C907.781276,528.585462 914.567189,507.261446 923.790759,474.188358 C932.091972,444.60705 931.301381,417.858696 896.91064,410.611605 C872.490139,405.516681 820.464811,396.908015 740.834654,384.785609 C706.575678,379.58088 678.773202,380.042058 676.137896,421.284594 Z"></path>
            <path fill="#66E0E9" id="路径" d="M261.604293,459.496528 C215.881738,452.183555 229.38768,363.703162 232.418281,341.368945 C236.898301,308.36174 263.910186,306.253496 292.503254,310.865281 C346.483101,319.605712 400.419026,328.565751 454.31103,337.7454 C509.257156,347.100736 471.374635,429.388159 460.372234,459.364763 C451.675724,483.21428 434.546237,487.760183 409.97201,483.741342 C360.560026,475.527972 311.104121,467.446367 261.604293,459.496528 Z"></path>
            <path fill="#FD80A6" id="路径" d="M704.730964,531.901555 C659.864883,523.666224 674.161417,451.590611 676.137896,421.284594 C678.773202,380.042058 706.575678,379.58088 740.834654,384.785609 C820.464811,396.908015 872.490139,405.516681 896.91064,410.611605 C931.301381,417.858696 932.091972,444.60705 923.790759,474.188358 C914.567189,507.261446 907.781276,528.585462 903.433022,538.160406 C891.969442,563.195812 866.209327,558.452261 839.460973,554.235772 C777.3556,544.441219 732.445597,536.99648 704.730964,531.901555 Z"></path>
            <path fill="#678490" id="路径" d="M149.867327,401.915096 C150.43831,402.00294 151.009293,402.090783 151.580276,402.178627 C152.634398,402.354314 153.117538,402.969219 153.029694,404.023341 C150.526154,432.836018 156.609318,459.584372 171.279187,484.268403 C166.272106,530.649785 171.323109,575.713514 186.432195,619.45959 L236.898301,633.88789 L273.397287,666.895095 L288.220882,701.681132 L291.515014,719.798859 L284.399688,724.740057 L263.712538,726.255358 C261.252919,726.431045 259.847423,725.31104 259.496049,722.895343 C253.654454,684.507722 233.62613,661.646444 199.411076,654.31151 C166.074458,647.130301 133.660196,660.833892 130.102534,697.66229 C128.587233,713.803538 134.780201,734.885985 138.074334,752.476651 L111.062449,762.556696 C92.2858954,711.431763 91.7588342,649.765607 150.130858,627.101977 C152.326946,626.223542 153.117538,624.664319 152.502633,622.424309 C133.923727,553.972241 139.326104,473.793062 149.867327,401.915096 Z"></path>
            <path fill="#B0B9C6" id="路径" d="M617.107046,555.092246 C606.126605,549.338495 594.706947,544.616906 582.848071,540.927477 C560.843267,534.075682 597.012839,520.042679 599.252849,515.299129 C609.72819,492.767264 564.532695,491.054315 551.422049,489.473132 C532.909026,487.299004 519.996027,506.602619 538.179637,516.946195 C540.024351,518.000317 541.759261,519.186205 543.384366,520.503857 C547.425169,523.79799 548.786743,527.026239 547.46909,530.188606 C546.590655,532.340773 544.987511,533.460778 542.659657,533.548621 L498.781816,535.063922 C533.106674,439.336439 612.627026,457.454166 617.107046,555.092246 Z"></path>
            <path fill="#B0B9C6" id="路径" d="M171.279187,484.268403 C192.098103,507.503016 217.858217,522.128963 248.55953,528.146244 C321.469657,542.420817 394.819002,552.325175 468.607564,557.859317 C438.630961,612.014852 451.412194,702.735254 519.468966,721.380042 C598.659906,742.98955 655.05545,658.000938 642.340099,588.033569 C681.913608,598.838323 721.794569,606.480709 761.982983,610.960729 C748.323314,627.782765 752.298234,638.060457 773.907742,641.793807 C795.868623,645.571079 819.344806,649.304429 844.336289,652.993857 C846.809795,653.360111 849.307282,652.503803 851.035667,650.696855 C852.764052,648.889907 853.50857,646.356846 853.032798,643.902052 C851.802989,637.753005 852.857111,632.39455 856.195165,627.826686 C887.160008,631.91141 916.258177,626.42119 943.48967,611.356025 C942.084174,630.505914 936.901405,648.469915 927.941366,665.248029 C926.887243,667.224508 925.349982,668.673926 923.329581,669.596283 L831.489173,713.474125 L828.129158,695.356398 C827.733863,693.028544 826.482092,691.293634 824.373848,690.151669 C806.014551,680.137507 787.611332,670.233149 769.164191,660.438596 C760.643369,655.914654 753.132747,658.000938 746.632326,666.697447 C744.532132,669.517646 743.824692,673.138666 744.706932,676.55255 C745.589171,679.966434 747.966894,682.808681 751.178229,684.288113 C773.139111,694.346197 793.716457,707.017626 812.910267,722.302399 L691.488553,790.886233 C635.795757,759.350407 576.018237,740.178557 512.155993,733.370684 L473.285232,733.041271 C471.0013,732.997349 468.936977,732.250679 467.092263,730.801261 C450.094541,717.317279 430.856809,712.639611 409.379066,716.768257 C406.787682,717.251397 404.350024,716.83414 402.066093,715.516487 C381.247177,703.438002 360.713752,703.943102 340.465819,717.031788 C338.357575,718.393362 336.095604,718.722776 333.679907,718.020027 C319.097882,713.540008 305.042917,714.132951 291.515014,719.798859 L288.220882,701.681132 C295.599738,699.309356 303.000555,696.937581 310.423333,694.565806 C370.047127,675.525721 365.171811,593.963007 304.164482,582.301779 C301.924472,581.862561 300.343289,580.610791 299.420932,578.546468 C285.519693,547.647507 254.225437,528.409775 221.086467,543.431018 C193.415756,556.036564 181.864332,581.379422 186.432195,619.45959 C171.323109,575.713514 166.272106,530.649785 171.279187,484.268403 Z"></path>
            <path fill="#678490" id="形状" d="M617.107046,555.092246 L642.340099,588.033569 C655.05545,658.000938 598.659906,742.98955 519.468966,721.380042 C451.412194,702.735254 438.630961,612.014852 468.607564,557.859317 L498.781816,535.063922 L542.659657,533.548621 C544.987511,533.460778 546.590655,532.340773 547.46909,530.188606 C548.786743,527.026239 547.425169,523.79799 543.384366,520.503857 C541.759261,519.186205 540.024351,518.000317 538.179637,516.946195 C519.996027,506.602619 532.909026,487.299004 551.422049,489.473132 C564.532695,491.054315 609.72819,492.767264 599.252849,515.299129 C597.012839,520.042679 560.843267,534.075682 582.848071,540.927477 C594.706947,544.616906 606.126605,549.338495 617.107046,555.092246 Z M493.577087,662.28331 C525.398404,717.427084 588.975157,693.972862 605.577583,643.506756 C606.280332,641.398511 605.797192,639.553797 604.128165,637.972614 C569.86919,605.558352 516.965426,614.386627 493.577087,655.365632 C492.215512,657.693485 492.215512,659.999378 493.577087,662.28331 Z"></path>
            <path fill="#678490" id="路径" d="M994.285189,518.856791 C988.707125,563.393459 979.549438,607.468949 966.812126,651.08326 C966.021535,653.718566 966.943892,654.57504 969.579197,653.652683 C1009.30643,639.553797 1075.91379,623.610197 1095.41505,675.130426 C1119.39633,738.641295 1043.69717,819.742832 998.238148,858.679475 C930.554711,916.656202 859.599102,961.039144 785.371322,991.828301 C768.307717,983.527087 769.032426,969.559966 785.239556,960.863457 C886.567065,906.37851 1009.30643,840.166451 1061.61725,731.196557 C1068.60081,716.702375 1076.30908,676.843374 1052.19603,672.099824 C977.748645,657.539759 791.30076,767.827307 717.841611,812.298093 L691.488553,790.886233 L812.910267,722.302399 L831.489173,713.474125 L923.329581,669.596283 C925.349982,668.673926 926.887243,667.224508 927.941366,665.248029 C936.901405,648.469915 942.084174,630.505914 943.48967,611.356025 C956.995612,595.675956 968.327427,586.518268 976.101579,566.226413 C982.162783,550.4585 988.223986,534.668626 994.285189,518.856791 Z"></path>
            <path fill="#FFCC6C" id="路径" d="M288.220882,701.681132 L273.397287,666.895095 C291.40521,670.145305 305.504096,666.214308 315.693945,655.102101 C328.475178,641.200863 322.348092,624.005493 307.85391,615.045453 C305.789587,613.771722 303.527616,613.200739 301.067998,613.332504 L278.865546,614.452509 C275.703179,614.628196 273.704739,613.178778 272.870226,610.104255 C268.456088,594.028889 266.809022,564.711112 242.037148,568.40054 C222.096667,571.431142 214.256632,583.268057 218.517043,603.911286 C218.956261,606.019531 219.988422,607.798362 221.613528,609.24778 C229.168071,615.96781 234.262996,624.18118 236.898301,633.88789 L186.432195,619.45959 C181.864332,581.379422 193.415756,556.036564 221.086467,543.431018 C254.225437,528.409775 285.519693,547.647507 299.420932,578.546468 C300.343289,580.610791 301.924472,581.862561 304.164482,582.301779 C365.171811,593.963007 370.047127,675.525721 310.423333,694.565806 C303.000555,696.937581 295.599738,699.309356 288.220882,701.681132 Z"></path>
            <path fill="#FFFF9D" id="路径" d="M273.397287,666.895095 L236.898301,633.88789 C234.262996,624.18118 229.168071,615.96781 221.613528,609.24778 C219.988422,607.798362 218.956261,606.019531 218.517043,603.911286 C214.256632,583.268057 222.096667,571.431142 242.037148,568.40054 C266.809022,564.711112 268.456088,594.028889 272.870226,610.104255 C273.704739,613.178778 275.703179,614.628196 278.865546,614.452509 L301.067998,613.332504 C303.527616,613.200739 305.789587,613.771722 307.85391,615.045453 C322.348092,624.005493 328.475178,641.200863 315.693945,655.102101 C305.504096,666.214308 291.40521,670.145305 273.397287,666.895095 Z"></path>
            <path fill="#91A1B5" id="路径" d="M761.982983,610.960729 L856.195165,627.826686 C852.857111,632.39455 851.802989,637.753005 853.032798,643.902052 C853.50857,646.356846 852.764052,648.889907 851.035667,650.696855 C849.307282,652.503803 846.809795,653.360111 844.336289,652.993857 C819.344806,649.304429 795.868623,645.571079 773.907742,641.793807 C752.298234,638.060457 748.323314,627.782765 761.982983,610.960729 Z"></path>
            <path fill="#FD80A6" id="路径" d="M605.577583,643.506756 C588.975157,693.972862 525.398404,717.427084 493.577087,662.28331 C492.215512,659.999378 492.215512,657.693485 493.577087,655.365632 C516.965426,614.386627 569.86919,605.558352 604.128165,637.972614 C605.797192,639.553797 606.280332,641.398511 605.577583,643.506756 Z"></path>
            <path fill="#B0B9C6" id="路径" d="M284.399688,724.740057 C275.505531,738.048352 247.241877,731.130674 232.022986,733.304801 L138.074334,752.476651 C134.780201,734.885985 128.587233,713.803538 130.102534,697.66229 C133.660196,660.833892 166.074458,647.130301 199.411076,654.31151 C233.62613,661.646444 253.654454,684.507722 259.496049,722.895343 C259.847423,725.31104 261.252919,726.431045 263.712538,726.255358 L284.399688,724.740057 Z"></path>
            <path fill="#91A1B5" id="路径" d="M831.489173,713.474125 L812.910267,722.302399 C793.716457,707.017626 773.139111,694.346197 751.178229,684.288113 C747.966894,682.808681 745.589171,679.966434 744.706932,676.55255 C743.824692,673.138666 744.532132,669.517646 746.632326,666.697447 C753.132747,658.000938 760.643369,655.914654 769.164191,660.438596 C787.611332,670.233149 806.014551,680.137507 824.373848,690.151669 C826.482092,691.293634 827.733863,693.028544 828.129158,695.356398 L831.489173,713.474125 Z"></path>
            <path fill="#B0B9C6" id="路径" d="M785.371322,991.828301 C774.12735,1030.61122 750.914698,1061.6639 715.733366,1084.98636 C724.56164,1018.97195 733.76325,952.825775 743.338194,886.547834 C747.422918,858.218296 738.924057,833.468383 717.841611,812.298093 C791.30076,767.827307 977.748645,657.539759 1052.19603,672.099824 C1076.30908,676.843374 1068.60081,716.702375 1061.61725,731.196557 C1009.30643,840.166451 886.567065,906.37851 785.239556,960.863457 C769.032426,969.559966 768.307717,983.527087 785.371322,991.828301 Z"></path>
            <path fill="#FFCC6C" id="路径" d="M512.155993,733.370684 L543.845545,760.514334 C545.514572,761.963752 547.447129,762.776304 549.643218,762.951991 C569.671542,764.66494 586.252007,772.395171 599.384615,786.142683 L610.584664,819.545184 C611.287413,821.785194 612.71487,823.366377 614.867036,824.288734 C628.65847,830.569546 638.36518,840.759395 643.987165,854.858281 L618.424699,869.418346 C609.772112,854.660633 598.76971,848.59943 585.417494,851.234736 C582.065457,851.901661 578.610075,850.752416 576.325222,848.210686 C574.040369,845.668957 573.264378,842.111111 574.283327,838.848799 C577.511576,828.505223 580.410413,815.592225 574.744505,805.709828 C562.885629,785.220325 541.078474,802.0204 524.146634,798.989798 C521.467406,798.506659 519.996027,796.903515 519.732497,794.180365 C518.283079,778.895592 510.794418,768.508095 497.266515,763.017874 C495.421801,762.271204 493.577087,762.293165 491.732373,763.083757 L464.193427,774.349689 C462.041261,775.272046 460.174586,774.832828 458.593402,773.032036 C433.096818,743.648376 441.727445,743.516611 402.263741,752.740181 C399.979809,753.267243 398.069212,752.652338 396.53195,750.895467 C380.105211,732.755779 363.700432,732.997349 347.317615,751.620176 C345.20937,753.991952 342.749751,754.431169 339.938758,752.937829 C316.089241,740.068753 299.574658,745.932308 290.395009,770.528496 C289.472652,773.11988 287.627938,774.327728 284.860867,774.152041 C271.025512,773.295567 261.011349,762.42493 249.613652,762.293165 C233.8677,762.095517 227.14767,784.627382 222.66765,796.618023 C221.918423,798.613026 220.357325,800.195019 218.379652,800.963414 C216.401979,801.73181 214.197372,801.612925 212.324075,800.636864 C195.194587,791.940355 180.414914,793.894874 167.985055,806.50042 C166.228184,808.25729 165.481514,810.387496 165.745045,812.891036 L168.11682,837.069967 C168.449256,840.317087 167.405552,843.5549 165.239339,845.996585 C163.073127,848.43827 159.982721,849.860291 156.719122,849.917083 C142.532393,850.136692 132.386465,855.626912 126.28134,866.387744 C116.135413,864.54303 107.35106,860.150854 99.9282822,853.211215 C106.955764,840.298217 116.904044,830.41582 129.77312,823.564025 C131.7496,822.509903 133.155096,820.906758 133.98961,818.754592 L146.309664,785.945035 C158.65168,770.352809 174.749006,763.061796 194.601643,764.071996 C196.797731,764.203762 198.708328,763.522974 200.333433,762.029634 L232.022986,733.304801 C247.241877,731.130674 275.505531,738.048352 284.399688,724.740057 L291.515014,719.798859 C305.042917,714.132951 319.097882,713.540008 333.679907,718.020027 C336.095604,718.722776 338.357575,718.393362 340.465819,717.031788 C360.713752,703.943102 381.247177,703.438002 402.066093,715.516487 C404.350024,716.83414 406.787682,717.251397 409.379066,716.768257 C430.856809,712.639611 450.094541,717.317279 467.092263,730.801261 C468.936977,732.250679 471.0013,732.997349 473.285232,733.041271 L512.155993,733.370684 Z"></path>
            <path fill="#E3E3E3" id="路径" d="M232.022986,733.304801 L200.333433,762.029634 C198.708328,763.522974 196.797731,764.203762 194.601643,764.071996 C174.749006,763.061796 158.65168,770.352809 146.309664,785.945035 L142.686119,785.154443 C141.192779,784.84699 139.7214,784.912873 138.271982,785.352091 C77.9893614,804.194527 3.60785507,843.262936 39.2503661,922.124462 C38.8111484,922.168384 38.2401655,922.256227 37.5374173,922.387993 C37.1421214,922.475836 36.9664344,922.717406 37.0103561,923.112702 C54.4472962,1046.79639 72.4112974,1170.41419 90.9023598,1293.96611 C96.9635632,1334.41806 144.003772,1355.82991 178.723926,1365.44878 C220.757053,1380.51395 264.01999,1389.51791 308.512737,1392.46067 C308.951954,1392.50459 309.237446,1392.30694 309.369211,1391.86772 C309.500976,1391.29674 309.58882,1390.72576 309.632742,1390.15477 C350.875277,1397.18225 392.557031,1397.33598 434.678002,1390.61595 C479.785653,1389.69359 523.246238,1380.97512 565.059757,1364.46054 C576.215884,1363.45034 586.976717,1359.9366 597.342253,1353.91932 L605.577583,1385.21357 C489.975502,1425.97297 371.36478,1436.18478 249.745417,1415.849 C189.726327,1405.83484 73.048163,1375.59471 62.1116439,1302.33321 C41.4684151,1164.24318 21.0887169,1026.1312 0.972549266,887.997252 C-8.9098475,820.335775 58.5539811,784.232086 111.062449,762.556696 L138.074334,752.476651 L232.022986,733.304801 Z"></path>
            <path fill="#E3E3E3" id="路径" d="M691.488553,790.886233 L717.841611,812.298093 C738.924057,833.468383 747.422918,858.218296 743.338194,886.547834 C733.76325,952.825775 724.56164,1018.97195 715.733366,1084.98636 C715.272187,1093.74875 711.450994,1101.85232 710.660402,1109.95588 C706.6196,1152.1647 699.679961,1193.86841 689.841486,1235.06703 L665.135494,1228.47876 L663.949607,1226.63405 C663.29078,1225.66777 663.049211,1224.61365 663.224898,1223.47168 L705.653321,924.430355 C714.305909,902.469473 715.601601,880.991731 709.540397,859.997128 C697.813286,819.611066 636.476544,793.982717 599.384615,786.142683 C586.252007,772.395171 569.671542,764.66494 549.643218,762.951991 C547.447129,762.776304 545.514572,761.963752 543.845545,760.514334 L512.155993,733.370684 C576.018237,740.178557 635.795757,759.350407 691.488553,790.886233 Z"></path>
            <path fill="#FFFF9D" id="形状" d="M618.424699,869.418346 C467.50952,924.32055 315.07904,928.932335 161.133259,883.253701 C152.744203,880.750161 141.126896,875.128175 126.28134,866.387744 C132.386465,855.626912 142.532393,850.136692 156.719122,849.917083 C159.982721,849.860291 163.073127,848.43827 165.239339,845.996585 C167.405552,843.5549 168.449256,840.317087 168.11682,837.069967 L165.745045,812.891036 C165.481514,810.387496 166.228184,808.25729 167.985055,806.50042 C180.414914,793.894874 195.194587,791.940355 212.324075,800.636864 C214.197372,801.612925 216.401979,801.73181 218.379652,800.963414 C220.357325,800.195019 221.918423,798.613026 222.66765,796.618023 C227.14767,784.627382 233.8677,762.095517 249.613652,762.293165 C261.011349,762.42493 271.025512,773.295567 284.860867,774.152041 C287.627938,774.327728 289.472652,773.11988 290.395009,770.528496 C299.574658,745.932308 316.089241,740.068753 339.938758,752.937829 C342.749751,754.431169 345.20937,753.991952 347.317615,751.620176 C363.700432,732.997349 380.105211,732.755779 396.53195,750.895467 C398.069212,752.652338 399.979809,753.267243 402.263741,752.740181 C441.727445,743.516611 433.096818,743.648376 458.593402,773.032036 C460.174586,774.832828 462.041261,775.272046 464.193427,774.349689 L491.732373,763.083757 C493.577087,762.293165 495.421801,762.271204 497.266515,763.017874 C510.794418,768.508095 518.283079,778.895592 519.732497,794.180365 C519.996027,796.903515 521.467406,798.506659 524.146634,798.989798 C541.078474,802.0204 562.885629,785.220325 574.744505,805.709828 C580.410413,815.592225 577.511576,828.505223 574.283327,838.848799 C573.264378,842.111111 574.040369,845.668957 576.325222,848.210686 C578.610075,850.752416 582.065457,851.901661 585.417494,851.234736 C598.76971,848.59943 609.772112,854.660633 618.424699,869.418346 Z M276.691419,863.225377 C297.773865,863.29126 295.533855,837.201732 318.197485,834.89584 C320.481417,834.676231 322.567701,835.247214 324.456337,836.608789 C350.479981,855.253577 352.785874,823.300494 374.395382,827.055805 C393.896645,830.41582 395.28018,851.366501 420.842646,836.14761 C422.731282,835.005644 424.795605,834.522505 427.035615,834.698192 C443.967455,835.818197 448.315709,851.498266 457.275749,861.973607 C458.681246,863.554791 460.416155,864.2795 462.480478,864.147734 C470.210709,863.664595 475.832694,860.260658 479.346435,853.935924 C480.620166,851.695914 480.817814,849.3461 479.939379,846.886481 C467.904816,814.252611 444.626281,801.03216 410.103775,807.225129 C407.688078,807.664347 405.404147,807.269051 403.25198,806.039241 C382.169534,794.136443 361.416501,794.202326 340.992881,806.236889 C339.104245,807.334933 337.083844,807.686307 334.931677,807.291012 C299.88211,800.790591 276.493771,813.769472 264.76666,846.227655 C263.370254,850.128882 263.952189,854.465842 266.326102,857.849653 C268.700016,861.233464 272.568023,863.239513 276.691419,863.225377 L276.691419,863.225377 Z"></path>
            <path fill="#FFFFFF" id="路径" d="M146.309664,785.945035 L133.98961,818.754592 C133.155096,820.906758 131.7496,822.509903 129.77312,823.564025 C116.904044,830.41582 106.955764,840.298217 99.9282822,853.211215 C91.7588342,859.667714 88.0474452,867.485788 88.7941152,876.665437 C89.2387629,882.666503 92.9345505,887.931735 98.4129814,890.369027 C251.721897,958.821095 489.228832,967.122309 642.208334,890.830206 C659.864883,882.001931 663.949607,864.608913 643.987165,854.858281 C638.36518,840.759395 628.65847,830.569546 614.867036,824.288734 C612.71487,823.366377 611.287413,821.785194 610.584664,819.545184 L599.384615,786.142683 C636.476544,793.982717 697.813286,819.611066 709.540397,859.997128 C715.601601,880.991731 714.305909,902.469473 705.653321,924.430355 C676.664957,944.941818 644.053048,961.500323 607.817593,974.105869 C604.771307,975.150824 602.609685,977.904319 602.283451,981.155312 L565.059757,1364.46054 C523.246238,1380.97512 479.785653,1389.69359 434.678002,1390.61595 L446.932174,1009.22132 C446.976096,1007.46445 446.119621,1006.58601 444.362751,1006.58601 L300.606819,1005.99307 C298.278966,1005.99307 297.158961,1007.157 297.246804,1009.48485 L309.632742,1390.15477 C309.58882,1390.72576 309.500976,1391.29674 309.369211,1391.86772 C309.237446,1392.30694 308.951954,1392.50459 308.512737,1392.46665 C264.01999,1389.51791 220.757053,1380.51395 178.723926,1365.44878 L141.500231,978.585889 C141.280622,976.214114 140.028852,974.676852 137.74492,973.974104 C101.421622,963.213272 68.590104,945.930058 39.2503661,922.124462 C3.60785507,843.262936 77.9893614,804.194527 138.271982,785.352091 C139.7214,784.912873 141.192779,784.84699 142.686119,785.154443 L146.309664,785.945035 Z"></path>
            <path fill="#FFCC6C" id="路径" d="M276.691419,863.225377 C272.568023,863.239513 268.700016,861.233464 266.326102,857.849653 C263.952189,854.465842 263.370254,850.128882 264.76666,846.227655 C276.493771,813.769472 299.88211,800.790591 334.931677,807.291012 C337.083844,807.686307 339.104245,807.334933 340.992881,806.236889 C361.416501,794.202326 382.169534,794.136443 403.25198,806.039241 C405.404147,807.269051 407.688078,807.664347 410.103775,807.225129 C444.626281,801.03216 467.904816,814.252611 479.939379,846.886481 C480.817814,849.3461 480.620166,851.695914 479.346435,853.935924 C475.832694,860.260658 470.210709,863.664595 462.480478,864.147734 C460.416155,864.2795 458.681246,863.554791 457.275749,861.973607 C448.315709,851.498266 443.967455,835.818197 427.035615,834.698192 C424.795605,834.522505 422.731282,835.005644 420.842646,836.14761 C395.28018,851.366501 393.896645,830.41582 374.395382,827.055805 C352.785874,823.300494 350.479981,855.253577 324.456337,836.608789 C322.567701,835.247214 320.481417,834.676231 318.197485,834.89584 C295.533855,837.201732 297.773865,863.29126 276.691419,863.225377 Z"></path>
            <path fill="#E3E3E3" id="路径" d="M99.9282822,853.211215 C107.35106,860.150854 116.135413,864.54303 126.28134,866.387744 C141.126896,875.128175 152.744203,880.750161 161.133259,883.253701 C315.07904,928.932335 467.50952,924.32055 618.424699,869.418346 L643.987165,854.858281 C663.949607,864.608913 659.864883,882.001931 642.208334,890.830206 C489.228832,967.122309 251.721897,958.821095 98.4129814,890.369027 C92.9345505,887.931735 89.2387629,882.666503 88.7941152,876.665437 C88.0474452,867.485788 91.7588342,859.667714 99.9282822,853.211215 Z"></path>
            <path fill="#FFBE8C" id="路径" d="M39.2503661,922.124462 C68.590104,945.930058 101.421622,963.213272 137.74492,973.974104 C140.028852,974.676852 141.280622,976.214114 141.500231,978.585889 L178.723926,1365.44878 C144.003768,1355.82991 96.9635632,1334.41806 90.9023598,1293.96611 C72.4112974,1170.41419 54.4472962,1046.79639 37.0103561,923.112702 C36.9664344,922.717406 37.1421214,922.475836 37.5374173,922.387993 C38.2401655,922.256227 38.8111484,922.168384 39.2503661,922.124462 Z"></path>
            <path fill="#FFBE8C" id="路径" d="M705.653321,924.430355 L663.224898,1223.47168 C663.049211,1224.61365 663.29078,1225.66777 663.949607,1226.63405 L665.135494,1228.47876 C615.45998,1236.64821 597.935196,1265.46089 612.561144,1314.91679 C613.263892,1317.24465 613.110166,1319.50662 612.099965,1321.7027 L597.342253,1353.91932 C586.976717,1359.9366 576.215884,1363.45034 565.059757,1364.46054 L602.283451,981.155312 C602.609685,977.904319 604.771307,975.150824 607.817593,974.105869 C644.053048,961.500323 676.664957,944.941818 705.653321,924.430355 Z"></path>
            <path fill="#FFBE8C" id="路径" d="M434.678002,1390.61595 C392.557031,1397.33598 350.875277,1397.18225 309.632742,1390.15477 L297.246804,1009.48485 C297.158961,1007.157 298.278966,1005.99307 300.606819,1005.99307 L444.362751,1006.58601 C446.119621,1006.58601 446.976096,1007.46445 446.932174,1009.22132 L434.678002,1390.61595 Z"></path>
            <path fill="#FFCC6C" id="形状" d="M665.135494,1228.47876 L689.841486,1235.06703 C701.568597,1244.33452 710.61648,1255.82006 716.985136,1269.52365 C717.907493,1271.50013 719.444755,1272.7519 721.596921,1273.27896 C794.660775,1290.67198 784.383082,1386.13593 711.780407,1387.32182 C709.584319,1387.36574 707.717644,1388.20025 706.180382,1389.82536 C670.779441,1428.08122 637.245175,1426.54395 605.577583,1385.21357 L597.342253,1353.91932 L612.099965,1321.7027 C613.110166,1319.50662 613.263892,1317.24465 612.561144,1314.91679 C597.935196,1265.46089 615.45998,1236.64821 665.135494,1228.47876 Z M655.714276,1326.51214 L635.488304,1344.56398 C633.819277,1346.05732 632.63339,1347.85811 631.930641,1349.96636 C623.761193,1374.40882 650.246017,1395.03009 670.471989,1381.65591 C686.94265,1370.85116 682.001452,1344.43222 712.83453,1356.81815 C714.854931,1357.65267 716.919254,1357.85032 719.027498,1357.4111 C743.73349,1352.66755 748.608806,1319.52858 728.448716,1307.53794 C719.686325,1302.26732 706.970974,1304.96851 696.297986,1304.37557 C693.794445,1304.19988 692.213262,1302.90419 691.554435,1300.48849 C688.787364,1289.94727 688.326186,1278.15428 681.869686,1269.85306 C665.399025,1248.70473 634.236534,1263.19892 635.751835,1290.07903 C635.839678,1292.31904 636.586348,1294.29552 637.991845,1296.00847 L656.373103,1318.6721 C658.613113,1321.52702 658.393504,1324.14036 655.714276,1326.51214 Z"></path>
            <path fill="#FFFF9D" id="路径" d="M656.373103,1318.6721 L637.991845,1296.00847 C636.586348,1294.29552 635.839678,1292.31904 635.751835,1290.07903 C634.236534,1263.19892 665.399025,1248.70473 681.869686,1269.85306 C688.326186,1278.15428 688.787364,1289.94727 691.554435,1300.48849 C692.213262,1302.90419 693.794445,1304.19988 696.297986,1304.37557 C706.970974,1304.96851 719.686325,1302.26732 728.448716,1307.53794 C748.608806,1319.52858 743.73349,1352.66755 719.027498,1357.4111 C716.919254,1357.85032 714.854931,1357.65267 712.83453,1356.81815 C682.001452,1344.43222 686.94265,1370.85116 670.471989,1381.65591 C650.246017,1395.03009 623.761193,1374.40882 631.930641,1349.96636 C632.63339,1347.85811 633.819277,1346.05732 635.488304,1344.56398 L655.714276,1326.51214 C658.393504,1324.14036 658.613113,1321.52702 656.373103,1318.6721 Z"></path>
        </g>
    </g>
</svg>